# xmcd
#
# Track frame offsets: 
#        150
#        16380
#        33707
#        51652
#        68722
#        87902
#        104305
#        122657
#        139602
#        156727
#        175720
#        187980
#        212795
#        221315
#        238217
#
# Disc length: 3577 seconds
#
# Revision: 4
# Processed by: cddbd v1.5.2PL0 Copyright (c) Steve Scherf et al.
# Submitted via: ExactAudioCopy v0.99pb5
#
DISCID=db0df70f
DTITLE=Harold Faltermeyer and Various Artists - Top Gun (Special Expande
DTITLE=d Edition)
DYEAR=1999
DGENRE=Soundtrack
TTITLE0=Kenny Loggins - Danger Zone
TTITLE1=Cheap Trick - Mighty Wings
TTITLE2=Kenny Loggins - Playing With The Boys
TTITLE3=Teena Marie - Lead Me On
TTITLE4=Berlin - Take My Breath Away (Love Theme From ''Top Gun'')
TTITLE5=Miami Sound Machine - Hot Summer Nights
TTITLE6=Loverboy - Heaven In Your Eyes
TTITLE7=Larry Greene - Through The Fire
TTITLE8=Marietta - Destination Unknown
TTITLE9=Harold Faltermeyer and Steve Stevens - Top Gun Anthem
TTITLE10=Otis Redding - (Sittin' On) The Dock Of The Bay
TTITLE11=Dog Fight #3 and Memories
TTITLE12=Jerry Lee Lewis - Great Balls Of Fire (Original Version)
TTITLE13=The Righteous Brothers - You've Lost That Lovin' Feeling
TTITLE14=Kenny Loggins - Playing With The Boys (12'' Dance Mix)
EXTD=
EXTT0=
EXTT1=
EXTT2=
EXTT3=
EXTT4=
EXTT5=
EXTT6=
EXTT7=
EXTT8=
EXTT9=
EXTT10=
EXTT11=
EXTT12=
EXTT13=
EXTT14=
PLAYORDER=
